{"title":"Edge.of.Tomorrow.2014.WEBDL.DVDRip.Cuda.DivX.Mp3.Raven","uid":11008334,"size":1120451622,"categoryP":"video","categoryS":"movies","magnet":"?xt=urn:btih:f10ec701a26bdd43f1300f3bbd0bbf3be9946b0e&amp;dn=Edge.of.Tomorrow.2014.WEBDL.DVDRip.Cuda.DivX.Mp3.Raven&amp;tr=udp%3A%2F%2Ftracker.openbittorrent.com%3A80&amp;tr=udp%3A%2F%2Fopen.demonii.com%3A1337&amp;tr=udp%3A%2F%2Ftracker.coppersurfer.tk%3A6969&amp;tr=udp%3A%2F%2Fexodus.desync.com%3A6969","seeders":2,"leechers":0,"uploader":"Raven1969","files":-1,"time":1410288740,"description":"Edge.of.Tomorrow.2014.WEBDL.DVDRip.Cuda.DivX.Mp3.Raven.\n\n\n\nEng, Swe and Spanish subs included.\n\n\n\n\nEncoded using Nvidia Graphics 690GTX Cuda cores (Great Quality)\n\n\n\n\n\n\nScreen images:\n\n\n &lt;a href=&quot;\nhttp://i.imgur.com/IUq0OOk.png&quot; rel=&quot;nofollow&quot; target=&quot;_NEW&quot;&gt;\nhttp://i.imgur.com/IUq0OOk.png&lt;/a&gt;\n\n\n &lt;a href=&quot;\nhttp://i.imgur.com/HPMbg8V.png&quot; rel=&quot;nofollow&quot; target=&quot;_NEW&quot;&gt;\nhttp://i.imgur.com/HPMbg8V.png&lt;/a&gt;\n\n\n &lt;a href=&quot;\nhttp://i.imgur.com/MN7WCnv.png&quot; rel=&quot;nofollow&quot; target=&quot;_NEW&quot;&gt;\nhttp://i.imgur.com/MN7WCnv.png&lt;/a&gt;\n\n\n &lt;a href=&quot;\nhttp://i.imgur.com/Ims4eJy.png&quot; rel=&quot;nofollow&quot; target=&quot;_NEW&quot;&gt;\nhttp://i.imgur.com/Ims4eJy.png&lt;/a&gt;\n\n\n &lt;a href=&quot;\nhttp://i.imgur.com/c46zWLV.png&quot; rel=&quot;nofollow&quot; target=&quot;_NEW&quot;&gt;\nhttp://i.imgur.com/c46zWLV.png&lt;/a&gt;\n\n\n &lt;a href=&quot;\nhttp://i.imgur.com/kFFdIaL.png&quot; rel=&quot;nofollow&quot; target=&quot;_NEW&quot;&gt;\nhttp://i.imgur.com/kFFdIaL.png&lt;/a&gt;\n\n\n &lt;a href=&quot;\nhttp://i.imgur.com/Ls16m3g.png&quot; rel=&quot;nofollow&quot; target=&quot;_NEW&quot;&gt;\nhttp://i.imgur.com/Ls16m3g.png&lt;/a&gt;\n\n\n\n\n\n\nIMDB:\n\n\n\n &lt;a href=&quot;\nhttp://www.imdb.com/title/tt1631867&quot; rel=&quot;nofollow&quot; target=&quot;_NEW&quot;&gt;\nhttp://www.imdb.com/title/tt1631867&lt;/a&gt;\n\n\n\n\nIMDB Rating:  8.1\n\n\n\n\n\n\n\n\nStoryline:\n\nAn officer finds himself caught in a time loop in a war with an alien race. His skills increase as he faces the same brutal combat scenarios, and his union with a Special Forces warrior gets him closer and closer to defeating the enemy.\n\nAn alien race has hit the Earth in an unrelenting assault, unbeatable by any military unit in the world. Major William Cage (Cruise) is an officer who has never seen a day of combat when he is unceremoniously dropped into what amounts to a suicide mission. Killed within minutes, Cage now finds himself inexplicably thrown into a time loop-forcing him to live out the same brutal combat over and over, fighting and dying again...and again. But with each battle, Cage becomes able to engage the adversaries with increasing skill, alongside Special Forces warrior Rita Vrataski (Blunt). And, as Cage and Vrataski take the fight to the aliens, each repeated encounter gets them one step closer to defeating the enemy.\n\n\n\n\n\n\n\nGeneral\n\n\n\nFormat                                   : AVI\nFormat/Info                              : Audio Video Interleave\nFile size                                : 1.04 GiB\nDuration                                 : 1h 53mn\nOverall bit rate                         : 1 316 Kbps\n\n\n\n\n\nVideo\n\n\nFormat                                   : MPEG-4 Visual\nFormat settings, BVOP                    : 3\nFormat settings, QPel                    : No\nFormat settings, GMC                     : No warppoints\nFormat settings, Matrix                  : Default (H.263)\nMuxing mode                              : Packed bitstream\nCodec ID                                 : DX50\nCodec ID/Hint                            : DivX 5\nDuration                                 : 1h 53mn\nBit rate                                 : 1 115 Kbps\nWidth                                    : 720 pixels\nHeight                                   : 304 pixels\nDisplay aspect ratio                     : 2.35:1\nFrame rate                               : 23.976 fps\nColor space                              : YUV\nChroma subsampling                       : 4:2:0\nBit depth                                : 8 bits\nScan type                                : Progressive\nCompression mode                         : Lossy\nBits/(Pixel*Frame)                       : 0.212\nStream size                              : 905 MiB (85%)\nTitle                                    : Video \n\n\n\n\n\nAudio\n\n\nFormat                                   : MPEG Audio\nFormat version                           : Version 1\nFormat profile                           : Layer 3\nCodec ID/Hint                            : MP3\nDuration                                 : 1h 53mn\nBit rate mode                            : Constant\nBit rate                                 : 192 Kbps\nChannel(s)                               : 2 channels\nSampling rate                            : 48.0 KHz\nCompression mode                         : Lossy\nStream size                              : 156 MiB (15%)\nInterleave, preload duration             : 500 ms\nTitle                                    : Audio \n\n\n\n\nPLEASE  SEED FOR AS LONG AS POSSIBLE TO KEEP THE TORRENT ALIVE :-)\n\n\n\n\n\n\n\n\n","torrent":{"xt":"urn:btih:f10ec701a26bdd43f1300f3bbd0bbf3be9946b0e","amp;dn":"Edge.of.Tomorrow.2014.WEBDL.DVDRip.Cuda.DivX.Mp3.Raven","amp;tr":["udp%3A%2F%2Ftracker.openbittorrent.com%3A80","udp%3A%2F%2Fopen.demonii.com%3A1337","udp%3A%2F%2Ftracker.coppersurfer.tk%3A6969","udp%3A%2F%2Fexodus.desync.com%3A6969"],"infoHash":"f10ec701a26bdd43f1300f3bbd0bbf3be9946b0e","infoHashBuffer":{"type":"Buffer","data":[241,14,199,1,162,107,221,67,241,48,15,59,189,11,191,59,233,148,107,14]},"announce":[],"urlList":[]}}